<svg version="1.2" xmlns="http://www.w3.org/2000/svg" viewBox="0 0 1166 520" width="1166" height="520">
	<style>
		.s0 { fill: #000000 } 
	</style>
	<g>
		<path class="s0" d="m260.3 22c-14.5 3.4-28.2 17.5-33.4 34.5-2.2 7-2.5 7.5-6.4 8.8-16.7 6-23.1 8.5-30.7 12.3-4.8 2.4-9 4.4-9.3 4.4-0.2 0 1.1-2.8 2.9-6.3 1.9-3.4 4.4-9.1 5.6-12.7 2.6-7.9 3.8-22.7 2.1-25.8-4.8-8.9-27.4 11.5-35.5 32.1-3.3 8.3-4.6 15.6-4.6 26v7.9l-10.4 11.1c-5.8 6.2-12.8 14.2-15.7 17.9-3 3.7-5.4 6.6-5.5 6.5-0.1-0.1 0.8-4 2.2-8.6 1.6-5.4 2.4-10.9 2.4-15.6 0-12.1-5.2-25.5-10-25.5-5.7 0-15 21.4-15 34.5 0 5.6 2.9 18.5 5.9 26.4l1.9 5.2-7.9 16.2c-4.3 8.9-7.9 16.8-7.9 17.4 0 0.7-0.3 1.3-0.7 1.3-0.5 0-0.8-6.2-0.8-13.8-0.1-12-0.4-14.7-2.8-22.2-4.6-14.6-15.1-29.5-24.5-34.8l-4.1-2.3-2.1 2.1c-1.8 1.8-2 3.3-2 13.9 0 6.6 0.7 17.5 1.6 24.3 3.1 23.8 8.2 38.6 19 54.5l5.6 8.3-2.6 14.7c-1.4 8.2-2.8 18.4-3.2 22.8-1.1 12.5-1.6 12.7-4.9 1.8-5-17.1-11.7-31-22.1-46.1-2.4-3.4-3.9-6.2-3.5-6.2 0.5 0 3.7 1.9 7 4.1 6 4 12.1 11 15.5 17.6 2.2 4.3 2.7 4.2 1.4-0.5-2.8-10.6-12.4-20.7-26.2-27.7-5-2.5-10.8-4.8-12.8-5.2-3.6-0.5-3.9-0.4-5.4 3.3-2.6 6.2-1.6 25.7 1.9 35.3 7 19.4 23.2 38.8 41 49.3 4.4 2.6 4.6 2.8 5.2 8.5 0.3 3.2 1 8.5 1.5 11.7 0.5 3.3 0.8 6.2 0.5 6.4-0.2 0.2-2.2-1.3-4.4-3.4-3.2-2.8-4.1-4.5-4.1-6.9 0-6.7-9.2-15.1-13.8-12.6-1.5 0.8-2.8 0.7-5-0.5-2.7-1.3-3.5-1.3-6.6 0-5.9 2.5-9.2 9.8-6.5 14.7 0.8 1.5 0.6 2.5-1 4.6-2.5 3.1-2.6 5.8-0.6 10.7 2 4.8 5.5 7 10.3 6.4 2.4-0.4 4.5 0 5.7 0.8 3.8 2.8 8.2 1.7 13.4-3.1 5.6-5.2 7.7-5.5 11.4-1.7l2.6 2.7-1 10.4c-1.2 12.6 0.2 31.8 3.2 44.1 6.1 24.8 17.4 44.5 36.9 64 20.8 20.8 44 33.2 70.3 37.5 10.5 1.7 18.3 1.9 10.7 0.3-15.5-3.3-38.1-13.4-52.5-23.4-10.1-7-27.3-24.1-34.9-34.7-16.5-23-24.6-47-24.6-73.2 0-23 7.5-45 21.1-62.1 21-26.4 53.2-44.7 118.9-67.7 63.7-22.3 94.4-39.8 115.1-65.6 12.6-15.5 19.2-29.2 23.6-48.4 2.2-9.6 2.2-34.6 0.1-44-1.8-8-2-7.9 7.5-1.5 8.7 5.8 24.3 21.8 30.7 31.2 6.6 9.9 13.2 23.9 15.8 33.6 3.5 13.1 4.3 22.2 3.6 42-0.7 19.3-0.2 23 3.6 31.6 3.3 7.2 10.4 15.7 23.3 27.9 12.9 12.1 15.4 15.7 14.2 19.5-0.4 1.2-4.8 5.2-9.9 9-5 3.7-9.8 7.5-10.5 8.4-2 2.4-1.6 6.4 0.8 9.4 1.1 1.5 2.8 4 3.6 5.5 1.5 2.7 1.5 2.9-1.3 5.5-1.6 1.5-6.4 4-10.6 5.6-4.2 1.6-7.6 3.2-7.6 3.6 0 0.4 1.9 1.5 4.3 2.6 5.5 2.4 10.7 5.7 10.7 6.7 0 0.5-0.8 2.1-1.9 3.5-4 5.7-4.5 10-2.2 19.6 2.5 10.3 2.6 12.6 0.7 17-3 7.3-11.4 11.6-22.4 11.6-4.9 0-20.9-2.2-36.1-5-11.7-2.1-24.3-0.5-34.4 4.6-2.8 1.5-8.4 5.9-12.2 9.8-15 15.2-23.5 40.7-22.1 66.1 1 18.3 5.4 32.8 4.7 15.8-1.3-35.9 14.6-71.8 36.5-82.8 5.4-2.7 6.8-2.9 15.9-2.9 5.5 0.1 16.3 1.1 24 2.4 23.4 3.8 39.6 1.8 48.5-5.8 8.4-7.1 10.4-15.6 7.1-29.5-2.7-11.5-2.7-13 1-17.1 4.3-4.9 4.8-9.4 1.5-13.3l-2.6-3.1 3.5-2.1c7.1-4.1 7.8-11.4 2-18.3-1.4-1.7-2.4-3.6-2.2-4.2 0.2-0.6 4.1-3.9 8.8-7.4 4.7-3.6 9.4-8 10.7-10.2 2.7-4.5 3.1-10.4 0.9-14.6-1.5-2.8-16.2-18-19.1-19.6-2.9-1.7-14-16.5-17-22.8l-3.1-6.5-0.1-24.5c0-23.2-0.2-25-2.7-34.1-7.1-25.8-15.4-41.1-31.6-58.2-18.8-19.7-40.3-31.7-65.1-36.3-10.9-2-36.2-1.6-42.4 0.7-7.7 2.8-5.5 3.6 11.6 4.2 16 0.6 30.5 2.8 39.3 6 9.1 3.3 15.3 6.9 15.8 9 4.1 18.3 4.5 25.2 2.2 39.6-5.5 33.9-25.6 61.6-59.2 81.9-16.2 9.7-43.6 22.1-68.3 30.7-37.9 13.3-55.5 20.3-75.6 30-38.4 18.6-59.7 39.3-72 69.8l-3.2 7.9-0.7-9.9c-1.1-14.7 0.2-35.9 3-49 0.4-1.6 3.1-3.5 9.8-6.9 22.7-11.5 34.3-23.1 38.2-37.9 1.6-6.3 0.8-9.5-2.5-9.5-1 0-5.6 1.9-10.2 4.2-9.8 5.1-21.2 15.6-28.2 26.3-2.5 3.8-4.6 6.5-4.6 5.8 0-6 9.8-38 14.5-47.3 5.6-10.9 5.2-10.7 11.6-7.5 14 7.1 30.3 10.4 43 8.6 18.1-2.5 33.9-11.5 44.3-25 5.1-6.6 7.6-11.2 7.6-13.9 0-7.7-33.4-13-52-8.3-11.8 3-24.9 9.7-35.2 18.1-4.9 3.9-8.8 6.8-8.8 6.4 0-1.3 10.1-15.6 17.6-25.1 4.1-5.1 12.1-14.1 17.8-20l10.4-10.7 5.7 5.2c6 5.5 18.6 12.2 26.6 14.1 21 4.9 46.4-0.9 61.5-14.2 8.1-7.2 7.9-10.6-0.8-14.9-9.2-4.5-20.2-6.2-36.8-5.5-15.4 0.6-24.5 2.4-40 7.7-4.6 1.6-8.6 2.7-8.9 2.5-1-1.1 13.8-11.8 23.7-17.2 9.7-5.3 29.2-13.4 36.8-15.3l5.2-1.3 3.8 4c9.6 9.9 20.1 14.4 35.5 15.1 11.4 0.5 18.1-0.5 26-3.9 9-3.9 9.1-8.8 0.1-14.2-3.1-2-6.9-3.8-8.5-4.2-6.5-1.7-2.7-2.3 12.5-2.2 14.2 0.2 16.7 0 19.8-1.7 8.4-4.5 10-8.7 5.2-13.6-8.4-8.4-28.3-5.6-41.3 5.8l-4.4 3.9-15.2 0.5-15.2 0.6 6.1-4.6c5.8-4.4 10.4-9.6 13.4-15.4 2.3-4.4 4.5-14.1 3.8-17.1-0.6-2.9-2.5-3.3-9.1-1.7zm1.7 8.8c0 4.3-4.7 12.8-9.9 18-4.3 4.3-12.8 9.6-19.4 12.1-2.6 1-2.7 1-2.1-1.7 2.4-10 14.2-24.4 23.6-28.7 6.9-3.1 7.8-3.1 7.8 0.3zm-76 16.5c0 5.7-3.3 17.4-6.6 23.4-5.2 9.2-7.3 12.1-15.3 20.4l-8 8.4-0.1-4.6c-0.1-18.1 8.5-36.3 22.8-48.3 5.8-4.8 7.2-4.7 7.2 0.7zm125.1 3.7c8.5 2.4 8.1 7.5-0.7 9.1-5 1-26.4 0.1-26.4-1 0-1.3 10.5-7 14.5-8 5.5-1.2 8.4-1.3 12.6-0.1zm-39.3 18.6c6.9 1.8 20.2 7.9 20.2 9.3 0 2.6-11.7 6.1-20.5 6.1-8-0.1-17.2-2.1-23.7-5.3-5.5-2.7-12.8-8.2-12.8-9.7 0-1.3 15-2.9 23.3-2.3 4.3 0.2 10.4 1.1 13.5 1.9zm-155.3 30.6c2.6 6.3 3.1 18.9 1 26.8-2 7.7-6.7 20-7.6 20-1.2 0-4.9-13.1-5.5-19.7-0.7-7.7 1.2-17.7 4.7-24.6 4.1-8.1 5-8.4 7.4-2.5zm121.8 3.7c5.1 1.7 6.7 2.6 6.5 3.8-0.5 2.8-12.4 10.1-21.1 12.9-7 2.4-9.9 2.8-19.7 2.8-9.7 0-12.7-0.5-19.3-2.6-7.2-2.4-18.7-8.4-18.7-9.8 0-1.3 21.5-7.3 32.5-9 10.5-1.6 32-0.6 39.8 1.9zm-161.6 42.2c2.3 4.6 5.1 12.4 6.3 17.3 2 8 2.2 10.8 1.7 26-0.3 9.4-0.9 18.4-1.4 20.1l-0.9 3-2.9-4.9c-3.9-6.7-10.3-21.7-12.1-28.5-2.8-10.9-5.4-28.4-6-40.9l-0.5-12.7 5.8 6.1c3.6 3.9 7.3 9.3 10 14.5zm111.6 2.1c8.5 2.7 8.9 4.7 1.5 7.7-7.7 3-15.8 4.7-38.3 8.1-11 1.7-22.7 3.5-26 4.1-3.3 0.5-7.8 1.3-10 1.6l-3.9 0.6 3.4-3c9.9-8.4 21.8-15.5 32-18.8 11.8-3.9 29.3-4 41.3-0.3zm-2.1 19.1c-5.4 5.5-13.5 10.4-22.5 13.5-5.8 2-9.1 2.5-17.2 2.6-9.8 0-15.5-1.1-26.4-5.1-4.1-1.6-4.2-1.7-2-2.5 1.3-0.5 10-1.8 19.4-2.8 9.3-1.1 21.2-2.7 26.3-3.5 8.9-1.5 24.2-5.2 25.1-6.1 0.2-0.2 0.7-0.4 1-0.4 0.3 0-1.4 1.9-3.7 4.3zm-152.7 40.4c5.7 5.7 13.9 19.7 21.3 36.3 3.4 7.6 13.2 34.3 12.8 34.7-0.9 0.9-9.5-5.4-15.2-11.2-7.4-7.5-11.3-13.1-16.4-23.3-6.6-13.1-10.6-39.2-6-39.2 0.4 0 2 1.2 3.5 2.7zm90.5-2.2c0 0.2-0.7 2.4-1.7 4.7-2.6 6.9-9.9 16.4-16.1 21.1-5.7 4.3-21.1 13.1-21.8 12.5-0.8-0.9 11-17.2 16.4-22.7 6.8-6.9 23.2-18 23.2-15.6zm-77.9 86.1c1.4 1.2 2.1 1.3 3.7 0.3 4.6-2.9 11.2 2.8 11.2 9.7 0 1.8 0.8 3.8 2 4.9 2.9 2.6 2.5 4.1-2.5 9-5.5 5.3-7.5 6.1-11.3 4.1-1.9-1-4.2-1.3-6.5-0.9-6.6 1-10.8-6.4-6.7-11.9 1.9-2.6 2-3.3 1-5.8-1.4-3.4-0.7-6.3 2.3-9 2.5-2.4 4.5-2.5 6.8-0.4z"/>
		<path class="s0" d="m308.6 22.7c-1.3 1.4-0.5 3.3 1.4 3.3 1.1 0 2-0.6 2-1.4 0-1.5-2.4-2.8-3.4-1.9z"/>
		<path class="s0" d="m215.5 32.9c-2.3 1-5.3 3.3-6.8 5-4.8 5.7-3.3 6.4 5.9 2.8 7.5-2.9 10.4-4.8 10.4-6.8 0-3.2-3.8-3.6-9.5-1z"/>
		<path class="s0" d="m116.2 38c-1.2 0.5-2.7 2.1-3.4 3.5-0.6 1.4-1.5 2.5-1.9 2.5-0.4 0-2.1 1.3-3.8 2.9-3.6 3.4-4.1 7.4-1.4 12.4 1.1 2 1.6 4.9 1.4 7.7-0.2 3.8 0.2 5 2.3 7.2 3.2 3.1 6.6 3.9 11.3 2.6 2.7-0.7 3.9-0.6 5.2 0.6 1 0.9 3.5 1.6 5.7 1.6 3.3 0 4.6-0.7 8-4.3 4.5-4.6 5.9-8.3 4.5-11.9-0.6-1.6-0.5-3.2 0.5-4.8 2.6-4.8 1.6-7.9-5.9-18.4-1.4-1.9-2.9-2.1-11.7-1.5-1.4 0.1-3.8-0.1-5.5-0.4-1.6-0.4-4-0.2-5.3 0.3zm18.9 4c1 0.6 2.6 2.5 3.4 4.3 0.8 1.8 2 4 2.7 5 1.1 1.4 1 2.2-0.3 4.6-1.1 1.9-1.5 4.4-1.2 7.7 0.4 5.2-0.2 6.4-5.1 10.2l-2.9 2.2-3.2-2c-2.7-1.7-4.3-1.9-8.8-1.4-4.7 0.6-5.7 0.4-7.6-1.5-2.6-2.6-2.6-3.3-0.3-6.1 1.8-2.2 1.7-2.3-1-5-3.2-3.2-3.8-8.2-1.2-10.2 0.9-0.7 3.2-2.8 5-4.6 3.4-3.4 5.8-3.9 9.6-2.1 1.8 0.8 3.1 0.6 5.3-0.5 3.6-1.9 3.2-1.8 5.6-0.6z"/>
		<path class="s0" d="m153.5 40c-0.8 2.5 0.1 4 2.5 4 2.5 0 4.3-3.3 2.8-4.8-1.8-1.8-4.6-1.4-5.3 0.8z"/>
		<path class="s0" d="m206.2 53.5c-2.8 2-5.2 6.6-5.2 10 0 5 5.7 4.5 11.5-0.9 3-2.9 3.6-4.1 3.3-6.8-0.3-3-0.6-3.3-3.8-3.6-2-0.1-4.5 0.4-5.8 1.3z"/>
		<path class="s0" d="m132.2 94.2c-2.3 2.8-1.8 7.4 0.9 8.9 3.5 1.8 6.9-0.3 6.9-4.4 0-1.8-0.5-3.8-1.2-4.5-1.6-1.6-5.3-1.5-6.6 0z"/>
		<path class="s0" d="m269.1 100.3c-1.5 1.8-0.5 4.4 2 5.2 2.6 0.9 5.1-1.3 4.7-3.9-0.4-2.5-4.9-3.4-6.7-1.3z"/>
		<path class="s0" d="m379.4 102c1.4 9.1 1.8 35.3 0.7 44.6-2.5 20.5-9.9 44.5-18.2 59.2-13.1 23.1-26.5 36.8-56.9 58.2-27.1 19.2-37.2 27.6-47.4 40-20.8 25.1-30.6 50.5-30.6 79.5 0 25.9 7.8 50.6 21.9 70 6 8.1 21.3 23.8 28.5 29.1 3.2 2.4 5.4 4.4 4.9 4.4-1.6 0-13.4-5-21.7-9.1-35.9-18-64.4-51.6-74.2-87.5-2.5-9-2.8-11.6-2.8-27.9-0.1-14.6 0.3-19.3 1.8-25 5.8-21.8 19.5-42.5 39.6-60 9.6-8.4 21.9-17.4 46.5-34 33.7-22.7 46.9-33.3 60.2-48.4 4-4.6 9.1-11.1 11.4-14.5 7.6-11.5 15.6-29.6 18.3-41.6l0.6-2.5-1.2 2.5c-0.6 1.4-3.3 7.1-5.9 12.7-9.9 21.3-23.1 37.1-46.4 55.4-10.6 8.3-19.1 13.7-45.6 28.9-32.4 18.8-49.3 30.6-63.3 44.3-25.7 25.3-36.6 52.5-35.3 87.7 1 26.4 7.6 47 22.2 69 6.8 10.3 28.8 32.1 40 39.7 21 14.2 46.8 24.2 71 27.4 14.6 1.9 45.3 0.7 60-2.5 20.5-4.3 36.1-9.9 56.3-20 30.3-15.2 61.6-37.7 81.4-58.5 10.9-11.4 13.5-15.8 4.2-7.1-22.5 21.1-55.3 40.8-81.9 48.9-46.6 14.4-94.4 7.4-125-18.2-23.1-19.4-33-40.8-32.9-71.2 0-18.9 3.7-33.1 13.5-51.4 9.5-17.8 20.2-29.6 44.4-49.1 33.6-26.9 49.5-47.9 59.9-79.1 6.5-19.8 8.1-29.7 8.1-53.4 0-18.4-0.3-22.2-2.3-30.9-2.3-10.1-4.8-16.5-3.8-9.6zm-113.8 217.7c-13.2 26.4-16.8 59.2-9.5 86.8 9.1 34.9 39 60.8 81.9 71.2 5.9 1.4 11.5 1.8 26.5 1.8 17.1-0.1 20.3-0.4 32-2.9 7.2-1.6 14-3.2 15.3-3.7 3.5-1.3 3.9-1.1 1.3 0.7-3.3 2.4-23.3 10.3-32.6 12.9-16.9 4.9-31.7 6.8-51.5 6.8-30.2-0.1-33.3-1.4-55-23.2-25.1-25.2-37-52-37-83.6 0-22.6 5.2-39.2 17.8-57 4.8-6.8 12.9-16.5 13.8-16.5 0.2 0-1.1 3-3 6.7z"/>
		<path class="s0" d="m81.5 107.5c-1.4 1.3-2.5 3.6-2.5 5 0 2.7 3.1 6.5 5.5 6.5 5.4 0 9.7-5.9 7.4-10.2-2.4-4.6-6.7-5.1-10.4-1.3z"/>
		<path class="s0" d="m151 126.5c-1 1.2-1 1.8 0 3 2 2.5 5.5 1.5 5.5-1.5 0-3-3.5-4-5.5-1.5z"/>
		<path class="s0" d="m226.7 134.1c-5.5 1.3-7.7 2.7-7.7 4.9 0 3.7 6.7 2.3 11.8-2.3 4-3.6 3-4.3-4.1-2.6z"/>
		<path class="s0" d="m92.6 136.9c-0.3 0.5 0.2 3.3 1.1 6.2 1.5 5.1 1.6 5.3 2.4 2.6 1.3-4.6-1.6-11.9-3.5-8.8z"/>
		<path class="s0" d="m35 156.5c-0.6 0.8-0.9 2.3-0.5 3.5 1 3.2 6.9 2.5 7.3-0.9 0.6-3.8-4.3-5.7-6.8-2.6z"/>
		<path class="s0" d="m40.9 175.4c-3.7 1.8-5.6 5.9-4.1 9 3.2 7 13.2 4.8 13.2-2.8 0-5.1-4.8-8.4-9.1-6.2z"/>
		<path class="s0" d="m391.2 176c0 1.4 0.2 1.9 0.5 1.2 0.2-0.6 0.2-1.8 0-2.5-0.3-0.6-0.5-0.1-0.5 1.3z"/>
		<path class="s0" d="m389.1 185.2c-1.8 9.4-7.4 25.5-12.1 35-9.6 19.2-23.5 35.6-43.7 51.7-5.1 4-9.3 7.5-9.3 7.8 0 0.2 2.1-1.1 4.8-2.8 18-12.4 37.1-31.9 45.9-47.4 7.3-12.7 14.1-32.3 15.9-45.6 0.9-7-0.1-6.1-1.5 1.3z"/>
		<path class="s0" d="m156.2 196.2c-2.2 1.1-3.9 5-3.3 7.8 1.5 7.5 13.1 5.9 13.1-1.8 0-5.3-5-8.4-9.8-6z"/>
		<path class="s0" d="m630.7 212.2c-20.6 1.5-38.3 8.4-49 19.1-16.8 16.8-13.6 35.7 8.1 48.4 2.4 1.4 12.5 6.2 22.5 10.5 18.9 8.3 30.2 14.9 33.7 19.8 13.7 19.2 4.3 45-22.7 62.4-8.2 5.2-22.1 10.9-32.3 13.1-11.9 2.6-28.9 3-40.4 1.1-21.9-3.7-35-12-42-26.6-2.9-6.1-3.1-7.2-3-17 0.1-19.6 6.3-34.7 19.7-48.7 8.4-8.8 8.4-10.2-0.1-5.9-8.8 4.5-18.6 15.6-25 28.2-16.6 32.9-0.3 63.7 38.8 73.3 35.9 8.8 74.2 0.6 102.5-21.9 23.2-18.5 32.5-39.4 24.4-55.3-5.8-11.3-12.2-16-42.4-30.7-25.7-12.6-32.3-17.1-35.6-24.5-7-15.3 6.3-30.4 33.2-37.6 6.5-1.8 11.2-2.3 20.4-2.4 11.1 0 12.4 0.2 18 2.8 6.9 3.2 8.9 4.9 12 9.7 6.2 9.8 2.8 19.5-7.6 22-5.4 1.3-8.2 3.6-5.6 4.6 4.4 1.7 17.6-5.8 21.2-12.1 7.6-12.8-2.5-27.6-21.5-31.4-7.5-1.5-15.7-1.7-27.3-0.9z"/>
		<path class="s0" d="m114.2 239.8c-4.4 4.1-5.4 6-2.4 4.3 2.5-1.3 8.8-8.1 7.6-8.1-0.6 0-2.9 1.7-5.2 3.8z"/>
		<path class="s0" d="m203.9 242.4c-33.9 11.7-62.3 34.3-76.4 60.9-16.8 31.5-17.9 68.4-2.9 98.9 9.6 19.6 28.5 39.4 46.9 48.9l6 3.1-3.5-2.8c-25.1-20.3-39.6-41.6-47-68.9-2.7-10-3.8-33.4-2.1-44.5 3.7-23.3 13.3-41.5 32-60 14.2-14.2 25.5-22.1 47-33.1 5.6-2.8 10.1-5.3 10.1-5.5 0-0.2-0.1-0.4-0.2-0.3-0.2 0-4.6 1.5-9.9 3.3z"/>
		<path class="s0" d="m845 249.7c-4.5 1.7-10.4 7.1-14.3 13-9.3 14.1-21.9 41.7-29.8 65.4-6.5 19.5-14.6 34-23.1 41.4-4.3 3.7-15.6 10-16.5 9.2-0.6-0.7 14-43 19-55.1 2.6-6.3 5.4-11.3 7.7-13.8l3.7-3.8h-7.2c-8.8 0-8.9 0.1-17.2 16-12 23.2-25.9 43.2-32.3 46.5-8.3 4.3-11.1-1.2-7-13.6 3.5-10.4 19.2-41 23.1-45.1l3.6-3.8h-7.5c-7 0-7.6 0.2-10.6 3.2-1.9 2-6.2 9.8-10.6 19.3-12.7 27.7-21.3 40.3-28.4 42.1-7.8 1.9-11.5-4.1-9.7-16.1 1.1-7.6 8.1-28.9 13.8-42.3l3.5-8.2h8.8c7.1 0 9-0.3 10.3-1.8 3.3-3.6 2.2-4.2-7.3-4.2h-9l4.4-8.8c2.5-4.8 5.9-11.1 7.7-14.1l3.1-5.4-3.7 0.6c-6.1 1-11 5-15.4 12.4-2.2 3.8-4.7 8.7-5.6 11-1.7 4.3-1.7 4.3-6.9 4.3-5.4 0-9.6 2-9.6 4.6 0 1.1 1.4 1.4 5.9 1.4h5.9l-4 10.2c-12.2 30.8-15.1 47.3-10.1 55.9 2.3 3.8 5.3 5.2 11.8 5.2 7.3 0 13.4-3.7 19.6-12l4.7-6.1-0.5 3.7c-0.7 5.3 1.7 10.4 6 12.4 10.6 5.1 20.7-1.3 33.9-21.3 7.5-11.4 7.7-10.9 2.1 5.5-2.9 8.3-10.1 25.5-10.8 25.5 0 0-8.7 2.2-19.2 4.9-21.6 5.6-31.5 9.4-38.9 15.2-8.5 6.6-12.4 13.4-12.4 21.9 0 11.5 12.6 16.8 29.5 12.5 15.6-4.1 31.4-18.9 46.4-43.5 5.1-8.4 5.3-8.7 13.5-12.7 9.8-4.9 18.8-12.8 24.6-21.6l4-6.2v6.5c0 7.1 2.1 11.9 6.1 14 1.2 0.7 5.1 1.2 8.6 1.2 9.7-0.1 16.2-4.6 24.5-16.9l3.5-5.1 0.6 4.8c2.7 22.8 25.5 22.4 42.7-0.8 2.4-3.1 2.7-3.2 5.8-2.1 7.4 2.6 16.4-1.2 21.2-8.8 1.6-2.5 5.2-10.2 8-17.3l5.1-12.8 4.2 0.5c6.2 0.8 11.1 3.4 11.5 6.1 0.2 1.4-1.8 6.1-5.3 12.1-7.1 12.5-9.5 19.4-9.5 27.2 0 5.6 0.3 6.4 3.4 9.5 2.7 2.7 4.2 3.4 7.3 3.4 5.3 0 11-3.6 16.3-10.2 4.3-5.5 4.5-5.6 4.8-3 0.9 8.9 6.5 13.9 14.7 13 6.1-0.7 11.5-4.5 17.7-12.6l4.8-6.3v3.3c0 11.9 8.6 19.3 17.1 14.7 3.7-1.9 12.8-10.9 17.3-16.9l4.1-5.5-0.4 7.8c-0.4 9.3 0.9 13 5.2 14.8 7.3 3.1 13.6 0.5 20.8-8.4 5.3-6.6 16.3-27.2 15.4-28.7-1-1.7-2.3-0.3-5.4 6.3-4 8.3-10.2 17.5-15.1 22.6-4.7 4.9-8.4 5.5-10.2 1.6-2.7-6.1 4.4-27.6 13.1-39.5 4.7-6.5 4.8-6.8 2.8-7.4-1.2-0.3-3.9-0.6-6-0.6-5 0-7.5 2.7-14.1 14.6-7.2 13-16.2 25.9-21.4 30.4-3.6 3.2-5.3 4-8.4 4-3.3 0-4-0.4-4.9-2.8-3.4-8.9 8.9-33.3 24.2-47.6 7.9-7.5 11.8-9.6 18-9.6 3.4 0 4.7 0.6 7.3 3.5 2.5 2.7 3.5 3.2 4.4 2.3 1.8-1.8 1.5-3.2-1.1-5.6-3.7-3.5-9.7-5.4-16.5-5.4-8.2 0.1-17.2 4.2-24.8 11.4-7.1 6.7-11.5 13.1-19.2 28.3-9.9 19.3-16.5 26.5-24.3 26.5-4.1 0-5.9-1.9-5.9-6 0-4 5.7-19.2 13.5-36.2 4.3-9.4 7.5-17.8 7.3-19-0.3-2.1-0.9-2.3-8-2.6-7.2-0.3-9.6 0.6-6.8 2.3 2 1.2 0.9 5.3-5.4 21.3-6.7 17-11.9 26.8-18.2 34-6.5 7.7-11.4 7.5-11.4-0.3 0-5.9 1.9-11.1 10.7-29.6 4-8.6 7.7-17.3 8-19.4l0.6-3.7-13.7 0.7c-10.1 0.6-13.6 0.5-13.6-0.4 0-0.6 0.6-1.4 1.4-1.7 0.8-0.3 3.1-2.6 5-5.1 3.1-3.9 3.6-5.4 3.6-9.8 0-4.1-0.5-5.6-2.3-7.3-2.8-2.7-5.9-2.8-7.9-0.5-0.9 1-2.3 5.4-3.3 9.8-2.6 12.2-10.2 34.4-14.8 43.6-3.1 6.1-5.1 8.8-7.6 10.3-3.8 2.2-11.2 2.6-13.5 0.7-1.4-1.2-1.3-1.7 0.3-4.9 5.4-10.7 6.7-25.2 3-33-6-12.2-21.1-10.9-34.9 3-5 5.1-7.3 8.7-14 22.2-8.2 16.7-14.8 26.2-20.3 29.7-10.5 6.4-16.6 1.7-15.4-12.1 0.9-10.7 4.4-18.5 11.6-26 11.9-12.3 22.3-28.4 33-50.8 4.6-9.6 5.5-12.3 5.9-18.6 0.4-7 0.3-7.3-2.3-9.4-2.8-2.2-4.6-2.6-7.5-1.5zm5.6 9.7c2.1 5.6-14.8 39.4-29.3 58.3-5.2 6.8-9.3 11.2-9.3 10 0-1 10.7-26 16-37.2 6.5-13.9 12.3-23.7 16.7-28.6 3.8-4.2 5.1-4.7 5.9-2.5zm32.5 54.5c2.6 2.7 2.9 3.6 2.9 9.5 0 3.6-0.2 6.6-0.4 6.6-0.3 0-1.6-0.4-3-0.9-1.9-0.8-3-0.6-5 1-2.1 1.7-2.6 2.9-2.6 6.5 0 2.5 0.9 6.2 2 8.5 2.3 4.5 2.1 5.4-3.8 12.9-7.4 9.5-13.5 13.1-19.5 11.6-13-3.2 3-49.1 19.8-56.7 5.4-2.5 6.2-2.4 9.6 1zm-141.1 76.7c0 2.7-16.2 22.2-25 30.1-13.8 12.4-29 17.3-34.6 11.2-2.7-3-1.4-10.8 2.7-16.9 6.2-9.2 14.9-13.7 40.9-21 14.1-4 16-4.4 16-3.4z"/>
		<path class="s0" d="m27 266.4c-2.9 3.6 1.3 9.2 5.8 7.5 1.6-0.6 2.2-1.6 2.2-3.8 0-4.4-5.3-6.8-8-3.7z"/>
		<path class="s0" d="m981.1 280.6c-3.5 2.9-4.2 8.1-1.5 10.8 2.4 2.5 8.1 2 10.9-0.9 3.3-3.2 3.4-8.7 0.3-10.9-3.2-2.3-6.2-2-9.7 1z"/>
		<path class="s0" d="m55.2 336.2c-3.2 3.2 0.4 8.7 4.8 7.3 2.5-0.8 3.7-5 2-7-1.5-1.8-5.1-2-6.8-0.3z"/>
		<path class="s0" d="m320.2 358.5c-12 12.2-18.7 28.8-19.9 49-0.3 5.8-0.1 11.5 0.5 13.5 1 3.3 1 3.1 1.1-3.2 0.3-24.3 9.1-47.6 23.4-62.6 2.3-2.3 3.7-4.2 3.2-4.2-0.5 0-4.2 3.4-8.3 7.5z"/>
		<path class="s0" d="m268.3 366.7c-1.7 7.9-0.7 22.3 2 30.8 1.5 4.4 3.4 8.9 4.3 10 1.6 2 1.6 2 0.9 0-5-15.3-5.7-19.3-5.9-31.7 0-7.1-0.2-12.8-0.3-12.8-0.1 0-0.6 1.7-1 3.7z"/>
		<path class="s0" d="m779.9 419.6c-3 0.9-5.9 2.7-7.8 4.9-5.8 6.6-3.6 11 8.3 16.5 4.5 2.1 9.2 4.9 10.5 6.3 4.5 4.9 2.3 12.4-5.3 18.2-3.3 2.5-13 5.5-17.9 5.5-8.7 0-16.8-4.8-18-10.7-0.9-4.6 1.2-12.2 4.5-15.9 3.8-4.4 3.1-5.4-1.2-1.7-6.1 5.1-8.6 14.3-5.5 20.3 6.1 11.8 30.3 12.6 43.4 1.4 5-4.3 7.1-8.1 7.1-12.7 0-4.6-3.1-7.7-12.1-12.2-4.1-2.1-8.4-4.6-9.6-5.8-6.4-5.8 1.5-13.6 13.8-13.7 4.5 0 6 0.4 7.7 2.3 2.8 3 2.9 6.7 0.2 7.4-1.1 0.3-2 1-2 1.5 0 0.5 0.6 0.6 1.3 0.2 3.2-1.8 4.7-3.9 4.7-6.6 0-6.1-11-8.7-22.1-5.2z"/>
		<path class="s0" d="m923.5 418.9c-8 2.1-12.5 6.3-12.5 11.6 0 4.2 3.6 7.4 13.2 11.8 8.9 4.1 11.3 7 10.5 12.3-0.9 5.2-4.9 9.9-11.4 13.1-4.9 2.4-7 2.8-13.8 2.8-8.1-0.1-11.1-1-15.2-4.8-4.8-4.3-4.2-14.1 1.3-21.3 4.1-5.3 1.5-4.5-3.4 1-6 6.8-6.1 16-0.4 21.3 11.2 10.5 37.6 5.7 45.8-8.3 4.8-8.2 2.2-12.8-11.1-19.3-10-5-12.7-8-10.4-11.9 2.6-4.6 6.2-6.4 13.7-7 6.6-0.4 7.2-0.3 9.7 2.2 3 3.1 3 5.7-0.3 7.1-1.2 0.5-2.2 1.4-2.2 1.8 0 0.5 1.5 0 3.3-1 4.2-2.5 4.7-6 1.2-9.3-2.1-1.9-3.8-2.5-8.8-2.7-3.4-0.1-7.5 0.2-9.2 0.6z"/>
		<path class="s0" d="m1068.3 419c-7 1.6-12.2 6.6-12.3 11.7 0 4 3.6 7.1 13.4 11.7 7.9 3.6 10.6 6.4 10.6 10.9 0 5.9-4.5 11.2-12.5 14.9-6.5 2.9-19.3 3.1-24.3 0.5-4.2-2.3-7.2-7.2-7.2-11.7 0-4.3 4.1-13.4 6.6-14.8 1.1-0.6 1.5-1.4 1.1-1.8-0.4-0.4-2.7 1.3-5 3.8-12.7 13.2-4.3 28.1 15.8 28 11.6 0 22.7-5.1 28-13 5.4-8 2.1-14-11.2-20.3-9.8-4.7-12.5-7.7-10.2-11.7 2.5-4.4 6.2-6.4 13.3-6.9 7.3-0.6 10.9 0.8 12.2 4.9 0.5 1.7 0 2.7-2.2 4.5-2.1 1.7-2.3 2.2-0.9 1.7 7.4-2.5 7.2-9.7-0.2-12.5-2.8-1.1-10.4-1-15 0.1z"/>
		<path class="s0" d="m848.7 431.4c-4.4 4.8-13.1 24.8-12.9 30 0.3 6.2 5.6 7.6 10.2 2.6 2.8-3 2.9-3 3.2-0.8 0.4 2.7 4.4 4.4 8.2 3.4 2.5-0.6 8.6-7.7 8.6-9.9 0-0.6-1.4 0.9-3 3.2-3.9 5.3-7.4 7.1-9.7 4.9-2.5-2.5-1-6.2 3.1-7.6 3.3-1.2 8.6-6.3 8.6-8.2 0-0.5-0.7-1.5-1.5-2.4-1.2-1.1-2.2-1.3-4.4-0.5-3.6 1.3-6.1 4-9.9 10.9-1.6 3-4.1 6.3-5.5 7.4-6.4 4.7-6.2-4.3 0.3-12.5 2.3-2.9 5.5-7.9 7.1-11.2 4.5-8.7 2.8-15-2.4-9.3zm1.7 7.7c-3.2 6.4-7.5 13.1-8.1 12.5-0.6-0.6 5.2-13.1 7.8-16.8 3.3-4.5 3.5-1.9 0.3 4.3zm12.6 9.5c0 2.1-5.4 7.4-7.5 7.4-1.6 0-1.6-0.2 0-2.8 3.2-5.2 7.5-7.8 7.5-4.6z"/>
		<path class="s0" d="m1100.6 431.3c-5.4 5.4-13 24.5-12.4 31.4 0.3 3.4 0.6 3.8 3.4 4.1 2.2 0.2 3.7-0.4 5.5-2.2l2.3-2.4 1.1 2.1c1.5 3.2 4.3 3.2 7.5 0.2l2.7-2.6 0.7 2.5c0.8 3.2 4.5 3.5 7.1 0.6 1.7-1.9 1.8-1.9 3.5 0.2 2.4 3 6.3 1.7 10-3.4 1.7-2.2 3-3.9 3-3.7 0 1.7-4.1 10.5-5.1 11.1-0.8 0.4-4.6 1.7-8.6 2.8-5.3 1.5-7.8 2.8-9.7 5.1-2.9 3.4-3.1 4.2-1.6 7 0.8 1.4 2.1 1.9 5.3 1.9 5.5 0 9.4-2.8 15.3-10.9 2.4-3.4 4.8-6.1 5.3-6.1 1.9 0 7.2-5.4 9.2-9.1 2.6-5.3 1.7-4.9-1.5 0.5-2.3 4-7.2 8.3-8.2 7.3-0.6-0.6 5.2-16.4 7.1-19.4 1.4-2.1 1.4-2.3-0.5-2.3-1.1 0-2.7 1.2-3.6 2.7-9.2 15.1-13.4 19.6-13.4 14.4 0-2.5 3.4-10.5 6.1-14.2l2-2.9h-2c-2.7 0-3.5 1-8.5 10.5-4.5 8.5-7.6 10.9-7.6 5.8 0-1.5 1.1-4.7 2.4-7 1.4-2.4 2-4.5 1.5-4.8-1.5-1-2.7 0.3-7 7-3.6 5.8-7.1 8.6-8.6 7.1-1.4-1.4 2.1-9 6.1-13.1 4.1-4.4 6.8-5.5 8.1-3.5 0.3 0.5 1.1 1 1.8 1 1.6 0-1.4-2.8-3.3-3-6.1-0.8-10.5 2.4-15.2 11.2-5.2 9.8-10.5 11.6-9.5 3.2 0.3-3.2 1.5-5.5 4.6-9 5-5.7 10.4-16.3 9.9-19.5-0.4-3.2-2.4-3.4-5.2-0.6zm3.9 2.9c-1.5 4.9-10.5 19.6-10.5 17.1 0-1.5 5-12.2 7.4-16 2.4-3.8 4-4.3 3.1-1.1zm22.6 40.7c-4.6 6.5-12.2 11.4-15 9.6-1.8-1.1-1.2-4.2 1.3-6.6 2.4-2.3 10.4-5.7 13.9-5.8 1.7-0.1 1.7 0.1-0.2 2.8z"/>
		<path class="s0" d="m957.7 431.1c-1.4 0.8-18.7 33.5-18.7 35.4 0 0.3 0.8 0.5 1.8 0.5 1.1 0 2.5-1.4 3.4-3.3 2.2-4.4 8.6-11.7 10.4-11.7 1.8 0 1.8 0.2-0.7 4.4-2.8 4.7-2.3 10 0.9 10.4 1.4 0.2 3.3-0.5 4.6-1.7 2.1-2 2.2-2 3.3-0.2 0.9 1.5 2.3 1.9 5.8 1.9 4.4-0.1 4.9-0.4 7.2-4.2 3.2-5.1 8.3-10.6 9.9-10.6 0.9 0 0.5 1.8-1.2 5.5-2 4.3-2.3 5.8-1.4 7.5 1.4 2.7 5.1 2.6 7.8-0.3 3.1-3.3 2.7-4.5-0.4-1.3-6.8 6.7-5.9 1.2 2.4-15.8 0.8-1.7-4.4 0.7-9.2 4.2-4.4 3.2-4.7 3.3-3.6 1.1 0.7-1.3 1.9-3.2 2.8-4.2 1.4-1.5 1.3-1.7-0.5-1.7-2.6 0-4.4 2.1-8.2 9.7-3 6-6.6 9.8-8.3 8.7-1.4-0.9-0.9-3.3 2.2-10.4 3.5-8.1 3.6-9 1-9-1.1 0-2 0.7-2 1.5 0 2.5-5.6 14.1-7.9 16.4-5.1 5.1-5.4 1.2-0.6-8.8 2-4.1 3.4-7.6 3.2-7.8-0.9-0.8-5.9 1.8-9.6 5.3-2.3 2-4.1 3.3-4.1 2.9 0-0.9 8.8-17.3 11.2-20.7 2.9-4.2 2.3-5.9-1.5-3.7z"/>
		<path class="s0" d="m810.7 437.4c-1.4 1.5-2.9 3.7-3.2 4.7-0.4 1.1-1.5 1.9-2.6 1.9-1 0-1.9 0.4-1.9 1 0 0.5 0.6 1 1.4 1 1 0 0.8 1.5-1 6.5-2.6 7.3-3 11.5-1.2 13.3 1.8 1.8 5.3 1.4 7.3-0.8l1.8-2 1.4 2c2.2 3.1 5.2 2.4 9.4-2l3.8-4-1.5 4.2c-2.1 5.9-2.7 6.4-10.5 8.3-7.3 1.8-13.9 6.5-13.9 9.8 0 4.7 7.8 6.2 13.6 2.6 1.9-1.1 5.5-5 8-8.5 2.5-3.5 5-6.4 5.5-6.4 1.2 0 7.9-6 7.9-7.2 0-0.5-1.5 0.7-3.4 2.6-1.8 2-3.8 3.6-4.4 3.6-1.2 0 4-15.9 6.5-19.8 1.4-2.2 1.3-2.3-0.8-2-1.6 0.2-3.3 2.1-5.7 6.3-4.5 8-8 12.5-9.8 12.5-2.4 0-1.5-4.1 2.5-11.8 3.1-5.7 3.5-7.2 2.2-7.2-2.8 0-3.8 1.3-7.7 9.4-7.8 16-13.8 13.1-7.4-3.7 1.9-5.1 2.4-5.7 5-5.7 1.6 0 3.2-0.5 3.5-1 0.4-0.6-0.7-1-2.5-1h-3.2l2.2-3.5c2.9-4.8 2.1-6.8-1.3-3.1zm8.4 36.4c-1.6 3-9.8 10.1-12.5 10.8-5.1 1.2-6.3-2.7-2-6.7 2.5-2.4 10.2-5.7 13.7-5.8 1.4-0.1 1.6 0.3 0.8 1.7z"/>
		<path class="s0" d="m970.4 439.5c-0.3 0.8-0.3 1.9 0 2.4 1 1.6 3.6 0.1 3.6-2 0-2.2-2.8-2.6-3.6-0.4z"/>
		<path class="s0" d="m1004 446.2c-3.7 1.4-5.9 3.8-8.6 9-2 3.9-2.2 5.2-1.3 7.5 1.3 3.4 2.6 4.3 6.5 4.3 3.1 0 7-3.2 9.3-7.7 2-3.9 1.2-3.7-1.9 0.6-3.9 5.3-7.4 7.1-9.7 4.9-2.5-2.5-1-6.2 3.1-7.6 3.7-1.4 8.6-6.4 8.6-8.7 0-2.2-3.2-3.4-6-2.3zm4 2.4c0 2-5.4 7.4-7.5 7.4-1.9 0-1-2.1 2.9-6.3 2.8-3 4.6-3.5 4.6-1.1z"/>
		<path class="s0" d="m866.3 464.6c-0.3 0.8-0.1 2 0.5 2.6 1.6 1.6 4.2 0.2 4.2-2.2 0-2.4-3.8-2.8-4.7-0.4z"/>
		<path class="s0" d="m1012 464.5c-1 1.2-1 1.9-0.2 2.7 1.6 1.6 4.2 0.2 4.2-2.2 0-2.4-2.2-2.6-4-0.5z"/>
		<path class="s0" d="m1147.4 464.5c-0.7 1.8 0.3 3.5 2.1 3.5 1.5 0 2.8-2.7 1.9-4.1-0.8-1.4-3.4-1.1-4 0.6z"/>
	</g>
	<filter id="f0">
		<feFlood flood-color="#cc2fb0" flood-opacity="1" />
		<feBlend mode="normal" in2="SourceGraphic"/>
		<feComposite in2="SourceAlpha" operator="in" />
	</filter>
	<g id="Layer copy 40" filter="url(#f0)">
		<path class="s0" d="m260.3 22c-14.5 3.4-28.2 17.5-33.4 34.5-2.2 7-2.5 7.5-6.4 8.8-16.7 6-23.1 8.5-30.7 12.3-4.8 2.4-9 4.4-9.3 4.4-0.2 0 1.1-2.8 2.9-6.3 1.9-3.4 4.4-9.1 5.6-12.7 2.6-7.9 3.8-22.7 2.1-25.8-4.8-8.9-27.4 11.5-35.5 32.1-3.3 8.3-4.6 15.6-4.6 26v7.9l-10.4 11.1c-5.8 6.2-12.8 14.2-15.7 17.9-3 3.7-5.4 6.6-5.5 6.5-0.1-0.1 0.8-4 2.2-8.6 1.6-5.4 2.4-10.9 2.4-15.6 0-12.1-5.2-25.5-10-25.5-5.7 0-15 21.4-15 34.5 0 5.6 2.9 18.5 5.9 26.4l1.9 5.2-7.9 16.2c-4.3 8.9-7.9 16.8-7.9 17.4 0 0.7-0.3 1.3-0.7 1.3-0.5 0-0.8-6.2-0.8-13.8-0.1-12-0.4-14.7-2.8-22.2-4.6-14.6-15.1-29.5-24.5-34.8l-4.1-2.3-2.1 2.1c-1.8 1.8-2 3.3-2 13.9 0 6.6 0.7 17.5 1.6 24.3 3.1 23.8 8.2 38.6 19 54.5l5.6 8.3-2.6 14.7c-1.4 8.2-2.8 18.4-3.2 22.8-1.1 12.5-1.6 12.7-4.9 1.8-5-17.1-11.7-31-22.1-46.1-2.4-3.4-3.9-6.2-3.5-6.2 0.5 0 3.7 1.9 7 4.1 6 4 12.1 11 15.5 17.6 2.2 4.3 2.7 4.2 1.4-0.5-2.8-10.6-12.4-20.7-26.2-27.7-5-2.5-10.8-4.8-12.8-5.2-3.6-0.5-3.9-0.4-5.4 3.3-2.6 6.2-1.6 25.7 1.9 35.3 7 19.4 23.2 38.8 41 49.3 4.4 2.6 4.6 2.8 5.2 8.5 0.3 3.2 1 8.5 1.5 11.7 0.5 3.3 0.8 6.2 0.5 6.4-0.2 0.2-2.2-1.3-4.4-3.4-3.2-2.8-4.1-4.5-4.1-6.9 0-6.7-9.2-15.1-13.8-12.6-1.5 0.8-2.8 0.7-5-0.5-2.7-1.3-3.5-1.3-6.6 0-5.9 2.5-9.2 9.8-6.5 14.7 0.8 1.5 0.6 2.5-1 4.6-2.5 3.1-2.6 5.8-0.6 10.7 2 4.8 5.5 7 10.3 6.4 2.4-0.4 4.5 0 5.7 0.8 3.8 2.8 8.2 1.7 13.4-3.1 5.6-5.2 7.7-5.5 11.4-1.7l2.6 2.7-1 10.4c-1.2 12.6 0.2 31.8 3.2 44.1 6.1 24.8 17.4 44.5 36.9 64 20.8 20.8 44 33.2 70.3 37.5 10.5 1.7 18.3 1.9 10.7 0.3-15.5-3.3-38.1-13.4-52.5-23.4-10.1-7-27.3-24.1-34.9-34.7-16.5-23-24.6-47-24.6-73.2 0-23 7.5-45 21.1-62.1 21-26.4 53.2-44.7 118.9-67.7 63.7-22.3 94.4-39.8 115.1-65.6 12.6-15.5 19.2-29.2 23.6-48.4 2.2-9.6 2.2-34.6 0.1-44-1.8-8-2-7.9 7.5-1.5 8.7 5.8 24.3 21.8 30.7 31.2 6.6 9.9 13.2 23.9 15.8 33.6 3.5 13.1 4.3 22.2 3.6 42-0.7 19.3-0.2 23 3.6 31.6 3.3 7.2 10.4 15.7 23.3 27.9 12.9 12.1 15.4 15.7 14.2 19.5-0.4 1.2-4.8 5.2-9.9 9-5 3.7-9.8 7.5-10.5 8.4-2 2.4-1.6 6.4 0.8 9.4 1.1 1.5 2.8 4 3.6 5.5 1.5 2.7 1.5 2.9-1.3 5.5-1.6 1.5-6.4 4-10.6 5.6-4.2 1.6-7.6 3.2-7.6 3.6 0 0.4 1.9 1.5 4.3 2.6 5.5 2.4 10.7 5.7 10.7 6.7 0 0.5-0.8 2.1-1.9 3.5-4 5.7-4.5 10-2.2 19.6 2.5 10.3 2.6 12.6 0.7 17-3 7.3-11.4 11.6-22.4 11.6-4.9 0-20.9-2.2-36.1-5-11.7-2.1-24.3-0.5-34.4 4.6-2.8 1.5-8.4 5.9-12.2 9.8-15 15.2-23.5 40.7-22.1 66.1 1 18.3 5.4 32.8 4.7 15.8-1.3-35.9 14.6-71.8 36.5-82.8 5.4-2.7 6.8-2.9 15.9-2.9 5.5 0.1 16.3 1.1 24 2.4 23.4 3.8 39.6 1.8 48.5-5.8 8.4-7.1 10.4-15.6 7.1-29.5-2.7-11.5-2.7-13 1-17.1 4.3-4.9 4.8-9.4 1.5-13.3l-2.6-3.1 3.5-2.1c7.1-4.1 7.8-11.4 2-18.3-1.4-1.7-2.4-3.6-2.2-4.2 0.2-0.6 4.1-3.9 8.8-7.4 4.7-3.6 9.4-8 10.7-10.2 2.7-4.5 3.1-10.4 0.9-14.6-1.5-2.8-16.2-18-19.1-19.6-2.9-1.7-14-16.5-17-22.8l-3.1-6.5-0.1-24.5c0-23.2-0.2-25-2.7-34.1-7.1-25.8-15.4-41.1-31.6-58.2-18.8-19.7-40.3-31.7-65.1-36.3-10.9-2-36.2-1.6-42.4 0.7-7.7 2.8-5.5 3.6 11.6 4.2 16 0.6 30.5 2.8 39.3 6 9.1 3.3 15.3 6.9 15.8 9 4.1 18.3 4.5 25.2 2.2 39.6-5.5 33.9-25.6 61.6-59.2 81.9-16.2 9.7-43.6 22.1-68.3 30.7-37.9 13.3-55.5 20.3-75.6 30-38.4 18.6-59.7 39.3-72 69.8l-3.2 7.9-0.7-9.9c-1.1-14.7 0.2-35.9 3-49 0.4-1.6 3.1-3.5 9.8-6.9 22.7-11.5 34.3-23.1 38.2-37.9 1.6-6.3 0.8-9.5-2.5-9.5-1 0-5.6 1.9-10.2 4.2-9.8 5.1-21.2 15.6-28.2 26.3-2.5 3.8-4.6 6.5-4.6 5.8 0-6 9.8-38 14.5-47.3 5.6-10.9 5.2-10.7 11.6-7.5 14 7.1 30.3 10.4 43 8.6 18.1-2.5 33.9-11.5 44.3-25 5.1-6.6 7.6-11.2 7.6-13.9 0-7.7-33.4-13-52-8.3-11.8 3-24.9 9.7-35.2 18.1-4.9 3.9-8.8 6.8-8.8 6.4 0-1.3 10.1-15.6 17.6-25.1 4.1-5.1 12.1-14.1 17.8-20l10.4-10.7 5.7 5.2c6 5.5 18.6 12.2 26.6 14.1 21 4.9 46.4-0.9 61.5-14.2 8.1-7.2 7.9-10.6-0.8-14.9-9.2-4.5-20.2-6.2-36.8-5.5-15.4 0.6-24.5 2.4-40 7.7-4.6 1.6-8.6 2.7-8.9 2.5-1-1.1 13.8-11.8 23.7-17.2 9.7-5.3 29.2-13.4 36.8-15.3l5.2-1.3 3.8 4c9.6 9.9 20.1 14.4 35.5 15.1 11.4 0.5 18.1-0.5 26-3.9 9-3.9 9.1-8.8 0.1-14.2-3.1-2-6.9-3.8-8.5-4.2-6.5-1.7-2.7-2.3 12.5-2.2 14.2 0.2 16.7 0 19.8-1.7 8.4-4.5 10-8.7 5.2-13.6-8.4-8.4-28.3-5.6-41.3 5.8l-4.4 3.9-15.2 0.5-15.2 0.6 6.1-4.6c5.8-4.4 10.4-9.6 13.4-15.4 2.3-4.4 4.5-14.1 3.8-17.1-0.6-2.9-2.5-3.3-9.1-1.7zm1.7 8.8c0 4.3-4.7 12.8-9.9 18-4.3 4.3-12.8 9.6-19.4 12.1-2.6 1-2.7 1-2.1-1.7 2.4-10 14.2-24.4 23.6-28.7 6.9-3.1 7.8-3.1 7.8 0.3zm-76 16.5c0 5.7-3.3 17.4-6.6 23.4-5.2 9.2-7.3 12.1-15.3 20.4l-8 8.4-0.1-4.6c-0.1-18.1 8.5-36.3 22.8-48.3 5.8-4.8 7.2-4.7 7.2 0.7zm125.1 3.7c8.5 2.4 8.1 7.5-0.7 9.1-5 1-26.4 0.1-26.4-1 0-1.3 10.5-7 14.5-8 5.5-1.2 8.4-1.3 12.6-0.1zm-39.3 18.6c6.9 1.8 20.2 7.9 20.2 9.3 0 2.6-11.7 6.1-20.5 6.1-8-0.1-17.2-2.1-23.7-5.3-5.5-2.7-12.8-8.2-12.8-9.7 0-1.3 15-2.9 23.3-2.3 4.3 0.2 10.4 1.1 13.5 1.9zm-155.3 30.6c2.6 6.3 3.1 18.9 1 26.8-2 7.7-6.7 20-7.6 20-1.2 0-4.9-13.1-5.5-19.7-0.7-7.7 1.2-17.7 4.7-24.6 4.1-8.1 5-8.4 7.4-2.5zm121.8 3.7c5.1 1.7 6.7 2.6 6.5 3.8-0.5 2.8-12.4 10.1-21.1 12.9-7 2.4-9.9 2.8-19.7 2.8-9.7 0-12.7-0.5-19.3-2.6-7.2-2.4-18.7-8.4-18.7-9.8 0-1.3 21.5-7.3 32.5-9 10.5-1.6 32-0.6 39.8 1.9zm-161.6 42.2c2.3 4.6 5.1 12.4 6.3 17.3 2 8 2.2 10.8 1.7 26-0.3 9.4-0.9 18.4-1.4 20.1l-0.9 3-2.9-4.9c-3.9-6.7-10.3-21.7-12.1-28.5-2.8-10.9-5.4-28.4-6-40.9l-0.5-12.7 5.8 6.1c3.6 3.9 7.3 9.3 10 14.5zm111.6 2.1c8.5 2.7 8.9 4.7 1.5 7.7-7.7 3-15.8 4.7-38.3 8.1-11 1.7-22.7 3.5-26 4.1-3.3 0.5-7.8 1.3-10 1.6l-3.9 0.6 3.4-3c9.9-8.4 21.8-15.5 32-18.8 11.8-3.9 29.3-4 41.3-0.3zm-2.1 19.1c-5.4 5.5-13.5 10.4-22.5 13.5-5.8 2-9.1 2.5-17.2 2.6-9.8 0-15.5-1.1-26.4-5.1-4.1-1.6-4.2-1.7-2-2.5 1.3-0.5 10-1.8 19.4-2.8 9.3-1.1 21.2-2.7 26.3-3.5 8.9-1.5 24.2-5.2 25.1-6.1 0.2-0.2 0.7-0.4 1-0.4 0.3 0-1.4 1.9-3.7 4.3zm-152.7 40.4c5.7 5.7 13.9 19.7 21.3 36.3 3.4 7.6 13.2 34.3 12.8 34.7-0.9 0.9-9.5-5.4-15.2-11.2-7.4-7.5-11.3-13.1-16.4-23.3-6.6-13.1-10.6-39.2-6-39.2 0.4 0 2 1.2 3.5 2.7zm90.5-2.2c0 0.2-0.7 2.4-1.7 4.7-2.6 6.9-9.9 16.4-16.1 21.1-5.7 4.3-21.1 13.1-21.8 12.5-0.8-0.9 11-17.2 16.4-22.7 6.8-6.9 23.2-18 23.2-15.6zm-77.9 86.1c1.4 1.2 2.1 1.3 3.7 0.3 4.6-2.9 11.2 2.8 11.2 9.7 0 1.8 0.8 3.8 2 4.9 2.9 2.6 2.5 4.1-2.5 9-5.5 5.3-7.5 6.1-11.3 4.1-1.9-1-4.2-1.3-6.5-0.9-6.6 1-10.8-6.4-6.7-11.9 1.9-2.6 2-3.3 1-5.8-1.4-3.4-0.7-6.3 2.3-9 2.5-2.4 4.5-2.5 6.8-0.4z"/>
		<path class="s0" d="m308.6 22.7c-1.3 1.4-0.5 3.3 1.4 3.3 1.1 0 2-0.6 2-1.4 0-1.5-2.4-2.8-3.4-1.9z"/>
		<path class="s0" d="m215.5 32.9c-2.3 1-5.3 3.3-6.8 5-4.8 5.7-3.3 6.4 5.9 2.8 7.5-2.9 10.4-4.8 10.4-6.8 0-3.2-3.8-3.6-9.5-1z"/>
		<path class="s0" d="m116.2 38c-1.2 0.5-2.7 2.1-3.4 3.5-0.6 1.4-1.5 2.5-1.9 2.5-0.4 0-2.1 1.3-3.8 2.9-3.6 3.4-4.1 7.4-1.4 12.4 1.1 2 1.6 4.9 1.4 7.7-0.2 3.8 0.2 5 2.3 7.2 3.2 3.1 6.6 3.9 11.3 2.6 2.7-0.7 3.9-0.6 5.2 0.6 1 0.9 3.5 1.6 5.7 1.6 3.3 0 4.6-0.7 8-4.3 4.5-4.6 5.9-8.3 4.5-11.9-0.6-1.6-0.5-3.2 0.5-4.8 2.6-4.8 1.6-7.9-5.9-18.4-1.4-1.9-2.9-2.1-11.7-1.5-1.4 0.1-3.8-0.1-5.5-0.4-1.6-0.4-4-0.2-5.3 0.3zm18.9 4c1 0.6 2.6 2.5 3.4 4.3 0.8 1.8 2 4 2.7 5 1.1 1.4 1 2.2-0.3 4.6-1.1 1.9-1.5 4.4-1.2 7.7 0.4 5.2-0.2 6.4-5.1 10.2l-2.9 2.2-3.2-2c-2.7-1.7-4.3-1.9-8.8-1.4-4.7 0.6-5.7 0.4-7.6-1.5-2.6-2.6-2.6-3.3-0.3-6.1 1.8-2.2 1.7-2.3-1-5-3.2-3.2-3.8-8.2-1.2-10.2 0.9-0.7 3.2-2.8 5-4.6 3.4-3.4 5.8-3.9 9.6-2.1 1.8 0.8 3.1 0.6 5.3-0.5 3.6-1.9 3.2-1.8 5.6-0.6z"/>
		<path class="s0" d="m153.5 40c-0.8 2.5 0.1 4 2.5 4 2.5 0 4.3-3.3 2.8-4.8-1.8-1.8-4.6-1.4-5.3 0.8z"/>
		<path class="s0" d="m206.2 53.5c-2.8 2-5.2 6.6-5.2 10 0 5 5.7 4.5 11.5-0.9 3-2.9 3.6-4.1 3.3-6.8-0.3-3-0.6-3.3-3.8-3.6-2-0.1-4.5 0.4-5.8 1.3z"/>
		<path class="s0" d="m132.2 94.2c-2.3 2.8-1.8 7.4 0.9 8.9 3.5 1.8 6.9-0.3 6.9-4.4 0-1.8-0.5-3.8-1.2-4.5-1.6-1.6-5.3-1.5-6.6 0z"/>
		<path class="s0" d="m269.1 100.3c-1.5 1.8-0.5 4.4 2 5.2 2.6 0.9 5.1-1.3 4.7-3.9-0.4-2.5-4.9-3.4-6.7-1.3z"/>
		<path class="s0" d="m379.4 102c1.4 9.1 1.8 35.3 0.7 44.6-2.5 20.5-9.9 44.5-18.2 59.2-13.1 23.1-26.5 36.8-56.9 58.2-27.1 19.2-37.2 27.6-47.4 40-20.8 25.1-30.6 50.5-30.6 79.5 0 25.9 7.8 50.6 21.9 70 6 8.1 21.3 23.8 28.5 29.1 3.2 2.4 5.4 4.4 4.9 4.4-1.6 0-13.4-5-21.7-9.1-35.9-18-64.4-51.6-74.2-87.5-2.5-9-2.8-11.6-2.8-27.9-0.1-14.6 0.3-19.3 1.8-25 5.8-21.8 19.5-42.5 39.6-60 9.6-8.4 21.9-17.4 46.5-34 33.7-22.7 46.9-33.3 60.2-48.4 4-4.6 9.1-11.1 11.4-14.5 7.6-11.5 15.6-29.6 18.3-41.6l0.6-2.5-1.2 2.5c-0.6 1.4-3.3 7.1-5.9 12.7-9.9 21.3-23.1 37.1-46.4 55.4-10.6 8.3-19.1 13.7-45.6 28.9-32.4 18.8-49.3 30.6-63.3 44.3-25.7 25.3-36.6 52.5-35.3 87.7 1 26.4 7.6 47 22.2 69 6.8 10.3 28.8 32.1 40 39.7 21 14.2 46.8 24.2 71 27.4 14.6 1.9 45.3 0.7 60-2.5 20.5-4.3 36.1-9.9 56.3-20 30.3-15.2 61.6-37.7 81.4-58.5 10.9-11.4 13.5-15.8 4.2-7.1-22.5 21.1-55.3 40.8-81.9 48.9-46.6 14.4-94.4 7.4-125-18.2-23.1-19.4-33-40.8-32.9-71.2 0-18.9 3.7-33.1 13.5-51.4 9.5-17.8 20.2-29.6 44.4-49.1 33.6-26.9 49.5-47.9 59.9-79.1 6.5-19.8 8.1-29.7 8.1-53.4 0-18.4-0.3-22.2-2.3-30.9-2.3-10.1-4.8-16.5-3.8-9.6zm-113.8 217.7c-13.2 26.4-16.8 59.2-9.5 86.8 9.1 34.9 39 60.8 81.9 71.2 5.9 1.4 11.5 1.8 26.5 1.8 17.1-0.1 20.3-0.4 32-2.9 7.2-1.6 14-3.2 15.3-3.7 3.5-1.3 3.9-1.1 1.3 0.7-3.3 2.4-23.3 10.3-32.6 12.9-16.9 4.9-31.7 6.8-51.5 6.8-30.2-0.1-33.3-1.4-55-23.2-25.1-25.2-37-52-37-83.6 0-22.6 5.2-39.2 17.8-57 4.8-6.8 12.9-16.5 13.8-16.5 0.2 0-1.1 3-3 6.7z"/>
		<path class="s0" d="m81.5 107.5c-1.4 1.3-2.5 3.6-2.5 5 0 2.7 3.1 6.5 5.5 6.5 5.4 0 9.7-5.9 7.4-10.2-2.4-4.6-6.7-5.1-10.4-1.3z"/>
		<path class="s0" d="m151 126.5c-1 1.2-1 1.8 0 3 2 2.5 5.5 1.5 5.5-1.5 0-3-3.5-4-5.5-1.5z"/>
		<path class="s0" d="m226.7 134.1c-5.5 1.3-7.7 2.7-7.7 4.9 0 3.7 6.7 2.3 11.8-2.3 4-3.6 3-4.3-4.1-2.6z"/>
		<path class="s0" d="m92.6 136.9c-0.3 0.5 0.2 3.3 1.1 6.2 1.5 5.1 1.6 5.3 2.4 2.6 1.3-4.6-1.6-11.9-3.5-8.8z"/>
		<path class="s0" d="m35 156.5c-0.6 0.8-0.9 2.3-0.5 3.5 1 3.2 6.9 2.5 7.3-0.9 0.6-3.8-4.3-5.7-6.8-2.6z"/>
		<path class="s0" d="m40.9 175.4c-3.7 1.8-5.6 5.9-4.1 9 3.2 7 13.2 4.8 13.2-2.8 0-5.1-4.8-8.4-9.1-6.2z"/>
		<path class="s0" d="m391.2 176c0 1.4 0.2 1.9 0.5 1.2 0.2-0.6 0.2-1.8 0-2.5-0.3-0.6-0.5-0.1-0.5 1.3z"/>
		<path class="s0" d="m389.1 185.2c-1.8 9.4-7.4 25.5-12.1 35-9.6 19.2-23.5 35.6-43.7 51.7-5.1 4-9.3 7.5-9.3 7.8 0 0.2 2.1-1.1 4.8-2.8 18-12.4 37.1-31.9 45.9-47.4 7.3-12.7 14.1-32.3 15.9-45.6 0.9-7-0.1-6.1-1.5 1.3z"/>
		<path class="s0" d="m156.2 196.2c-2.2 1.1-3.9 5-3.3 7.8 1.5 7.5 13.1 5.9 13.1-1.8 0-5.3-5-8.4-9.8-6z"/>
		<path class="s0" d="m630.7 212.2c-20.6 1.5-38.3 8.4-49 19.1-16.8 16.8-13.6 35.7 8.1 48.4 2.4 1.4 12.5 6.2 22.5 10.5 18.9 8.3 30.2 14.9 33.7 19.8 13.7 19.2 4.3 45-22.7 62.4-8.2 5.2-22.1 10.9-32.3 13.1-11.9 2.6-28.9 3-40.4 1.1-21.9-3.7-35-12-42-26.6-2.9-6.1-3.1-7.2-3-17 0.1-19.6 6.3-34.7 19.7-48.7 8.4-8.8 8.4-10.2-0.1-5.9-8.8 4.5-18.6 15.6-25 28.2-16.6 32.9-0.3 63.7 38.8 73.3 35.9 8.8 74.2 0.6 102.5-21.9 23.2-18.5 32.5-39.4 24.4-55.3-5.8-11.3-12.2-16-42.4-30.7-25.7-12.6-32.3-17.1-35.6-24.5-7-15.3 6.3-30.4 33.2-37.6 6.5-1.8 11.2-2.3 20.4-2.4 11.1 0 12.4 0.2 18 2.8 6.9 3.2 8.9 4.9 12 9.7 6.2 9.8 2.8 19.5-7.6 22-5.4 1.3-8.2 3.6-5.6 4.6 4.4 1.7 17.6-5.8 21.2-12.1 7.6-12.8-2.5-27.6-21.5-31.4-7.5-1.5-15.7-1.7-27.3-0.9z"/>
		<path class="s0" d="m114.2 239.8c-4.4 4.1-5.4 6-2.4 4.3 2.5-1.3 8.8-8.1 7.6-8.1-0.6 0-2.9 1.7-5.2 3.8z"/>
		<path class="s0" d="m203.9 242.4c-33.9 11.7-62.3 34.3-76.4 60.9-16.8 31.5-17.9 68.4-2.9 98.9 9.6 19.6 28.5 39.4 46.9 48.9l6 3.1-3.5-2.8c-25.1-20.3-39.6-41.6-47-68.9-2.7-10-3.8-33.4-2.1-44.5 3.7-23.3 13.3-41.5 32-60 14.2-14.2 25.5-22.1 47-33.1 5.6-2.8 10.1-5.3 10.1-5.5 0-0.2-0.1-0.4-0.2-0.3-0.2 0-4.6 1.5-9.9 3.3z"/>
		<path class="s0" d="m845 249.7c-4.5 1.7-10.4 7.1-14.3 13-9.3 14.1-21.9 41.7-29.8 65.4-6.5 19.5-14.6 34-23.1 41.4-4.3 3.7-15.6 10-16.5 9.2-0.6-0.7 14-43 19-55.1 2.6-6.3 5.4-11.3 7.7-13.8l3.7-3.8h-7.2c-8.8 0-8.9 0.1-17.2 16-12 23.2-25.9 43.2-32.3 46.5-8.3 4.3-11.1-1.2-7-13.6 3.5-10.4 19.2-41 23.1-45.1l3.6-3.8h-7.5c-7 0-7.6 0.2-10.6 3.2-1.9 2-6.2 9.8-10.6 19.3-12.7 27.7-21.3 40.3-28.4 42.1-7.8 1.9-11.5-4.1-9.7-16.1 1.1-7.6 8.1-28.9 13.8-42.3l3.5-8.2h8.8c7.1 0 9-0.3 10.3-1.8 3.3-3.6 2.2-4.2-7.3-4.2h-9l4.4-8.8c2.5-4.8 5.9-11.1 7.7-14.1l3.1-5.4-3.7 0.6c-6.1 1-11 5-15.4 12.4-2.2 3.8-4.7 8.7-5.6 11-1.7 4.3-1.7 4.3-6.9 4.3-5.4 0-9.6 2-9.6 4.6 0 1.1 1.4 1.4 5.9 1.4h5.9l-4 10.2c-12.2 30.8-15.1 47.3-10.1 55.9 2.3 3.8 5.3 5.2 11.8 5.2 7.3 0 13.4-3.7 19.6-12l4.7-6.1-0.5 3.7c-0.7 5.3 1.7 10.4 6 12.4 10.6 5.1 20.7-1.3 33.9-21.3 7.5-11.4 7.7-10.9 2.1 5.5-2.9 8.3-10.1 25.5-10.8 25.5 0 0-8.7 2.2-19.2 4.9-21.6 5.6-31.5 9.4-38.9 15.2-8.5 6.6-12.4 13.4-12.4 21.9 0 11.5 12.6 16.8 29.5 12.5 15.6-4.1 31.4-18.9 46.4-43.5 5.1-8.4 5.3-8.7 13.5-12.7 9.8-4.9 18.8-12.8 24.6-21.6l4-6.2v6.5c0 7.1 2.1 11.9 6.1 14 1.2 0.7 5.1 1.2 8.6 1.2 9.7-0.1 16.2-4.6 24.5-16.9l3.5-5.1 0.6 4.8c2.7 22.8 25.5 22.4 42.7-0.8 2.4-3.1 2.7-3.2 5.8-2.1 7.4 2.6 16.4-1.2 21.2-8.8 1.6-2.5 5.2-10.2 8-17.3l5.1-12.8 4.2 0.5c6.2 0.8 11.1 3.4 11.5 6.1 0.2 1.4-1.8 6.1-5.3 12.1-7.1 12.5-9.5 19.4-9.5 27.2 0 5.6 0.3 6.4 3.4 9.5 2.7 2.7 4.2 3.4 7.3 3.4 5.3 0 11-3.6 16.3-10.2 4.3-5.5 4.5-5.6 4.8-3 0.9 8.9 6.5 13.9 14.7 13 6.1-0.7 11.5-4.5 17.7-12.6l4.8-6.3v3.3c0 11.9 8.6 19.3 17.1 14.7 3.7-1.9 12.8-10.9 17.3-16.9l4.1-5.5-0.4 7.8c-0.4 9.3 0.9 13 5.2 14.8 7.3 3.1 13.6 0.5 20.8-8.4 5.3-6.6 16.3-27.2 15.4-28.7-1-1.7-2.3-0.3-5.4 6.3-4 8.3-10.2 17.5-15.1 22.6-4.7 4.9-8.4 5.5-10.2 1.6-2.7-6.1 4.4-27.6 13.1-39.5 4.7-6.5 4.8-6.8 2.8-7.4-1.2-0.3-3.9-0.6-6-0.6-5 0-7.5 2.7-14.1 14.6-7.2 13-16.2 25.9-21.4 30.4-3.6 3.2-5.3 4-8.4 4-3.3 0-4-0.4-4.9-2.8-3.4-8.9 8.9-33.3 24.2-47.6 7.9-7.5 11.8-9.6 18-9.6 3.4 0 4.7 0.6 7.3 3.5 2.5 2.7 3.5 3.2 4.4 2.3 1.8-1.8 1.5-3.2-1.1-5.6-3.7-3.5-9.7-5.4-16.5-5.4-8.2 0.1-17.2 4.2-24.8 11.4-7.1 6.7-11.5 13.1-19.2 28.3-9.9 19.3-16.5 26.5-24.3 26.5-4.1 0-5.9-1.9-5.9-6 0-4 5.7-19.2 13.5-36.2 4.3-9.4 7.5-17.8 7.3-19-0.3-2.1-0.9-2.3-8-2.6-7.2-0.3-9.6 0.6-6.8 2.3 2 1.2 0.9 5.3-5.4 21.3-6.7 17-11.9 26.8-18.2 34-6.5 7.7-11.4 7.5-11.4-0.3 0-5.9 1.9-11.1 10.7-29.6 4-8.6 7.7-17.3 8-19.4l0.6-3.7-13.7 0.7c-10.1 0.6-13.6 0.5-13.6-0.4 0-0.6 0.6-1.4 1.4-1.7 0.8-0.3 3.1-2.6 5-5.1 3.1-3.9 3.6-5.4 3.6-9.8 0-4.1-0.5-5.6-2.3-7.3-2.8-2.7-5.9-2.8-7.9-0.5-0.9 1-2.3 5.4-3.3 9.8-2.6 12.2-10.2 34.4-14.8 43.6-3.1 6.1-5.1 8.8-7.6 10.3-3.8 2.2-11.2 2.6-13.5 0.7-1.4-1.2-1.3-1.7 0.3-4.9 5.4-10.7 6.7-25.2 3-33-6-12.2-21.1-10.9-34.9 3-5 5.1-7.3 8.7-14 22.2-8.2 16.7-14.8 26.2-20.3 29.7-10.5 6.4-16.6 1.7-15.4-12.1 0.9-10.7 4.4-18.5 11.6-26 11.9-12.3 22.3-28.4 33-50.8 4.6-9.6 5.5-12.3 5.9-18.6 0.4-7 0.3-7.3-2.3-9.4-2.8-2.2-4.6-2.6-7.5-1.5zm5.6 9.7c2.1 5.6-14.8 39.4-29.3 58.3-5.2 6.8-9.3 11.2-9.3 10 0-1 10.7-26 16-37.2 6.5-13.9 12.3-23.7 16.7-28.6 3.8-4.2 5.1-4.7 5.9-2.5zm32.5 54.5c2.6 2.7 2.9 3.6 2.9 9.5 0 3.6-0.2 6.6-0.4 6.6-0.3 0-1.6-0.4-3-0.9-1.9-0.8-3-0.6-5 1-2.1 1.7-2.6 2.9-2.6 6.5 0 2.5 0.9 6.2 2 8.5 2.3 4.5 2.1 5.4-3.8 12.9-7.4 9.5-13.5 13.1-19.5 11.6-13-3.2 3-49.1 19.8-56.7 5.4-2.5 6.2-2.4 9.6 1zm-141.1 76.7c0 2.7-16.2 22.2-25 30.1-13.8 12.4-29 17.3-34.6 11.2-2.7-3-1.4-10.8 2.7-16.9 6.2-9.2 14.9-13.7 40.9-21 14.1-4 16-4.4 16-3.4z"/>
		<path class="s0" d="m27 266.4c-2.9 3.6 1.3 9.2 5.8 7.5 1.6-0.6 2.2-1.6 2.2-3.8 0-4.4-5.3-6.8-8-3.7z"/>
		<path class="s0" d="m981.1 280.6c-3.5 2.9-4.2 8.1-1.5 10.8 2.4 2.5 8.1 2 10.9-0.9 3.3-3.2 3.4-8.7 0.3-10.9-3.2-2.3-6.2-2-9.7 1z"/>
		<path class="s0" d="m55.2 336.2c-3.2 3.2 0.4 8.7 4.8 7.3 2.5-0.8 3.7-5 2-7-1.5-1.8-5.1-2-6.8-0.3z"/>
		<path class="s0" d="m320.2 358.5c-12 12.2-18.7 28.8-19.9 49-0.3 5.8-0.1 11.5 0.5 13.5 1 3.3 1 3.1 1.1-3.2 0.3-24.3 9.1-47.6 23.4-62.6 2.3-2.3 3.7-4.2 3.2-4.2-0.5 0-4.2 3.4-8.3 7.5z"/>
		<path class="s0" d="m268.3 366.7c-1.7 7.9-0.7 22.3 2 30.8 1.5 4.4 3.4 8.9 4.3 10 1.6 2 1.6 2 0.9 0-5-15.3-5.7-19.3-5.9-31.7 0-7.1-0.2-12.8-0.3-12.8-0.1 0-0.6 1.7-1 3.7z"/>
		<path class="s0" d="m779.9 419.6c-3 0.9-5.9 2.7-7.8 4.9-5.8 6.6-3.6 11 8.3 16.5 4.5 2.1 9.2 4.9 10.5 6.3 4.5 4.9 2.3 12.4-5.3 18.2-3.3 2.5-13 5.5-17.9 5.5-8.7 0-16.8-4.8-18-10.7-0.9-4.6 1.2-12.2 4.5-15.9 3.8-4.4 3.1-5.4-1.2-1.7-6.1 5.1-8.6 14.3-5.5 20.3 6.1 11.8 30.3 12.6 43.4 1.4 5-4.3 7.1-8.1 7.1-12.7 0-4.6-3.1-7.7-12.1-12.2-4.1-2.1-8.4-4.6-9.6-5.8-6.4-5.8 1.5-13.6 13.8-13.7 4.5 0 6 0.4 7.7 2.3 2.8 3 2.9 6.7 0.2 7.4-1.1 0.3-2 1-2 1.5 0 0.5 0.6 0.6 1.3 0.2 3.2-1.8 4.7-3.9 4.7-6.6 0-6.1-11-8.7-22.1-5.2z"/>
		<path class="s0" d="m923.5 418.9c-8 2.1-12.5 6.3-12.5 11.6 0 4.2 3.6 7.4 13.2 11.8 8.9 4.1 11.3 7 10.5 12.3-0.9 5.2-4.9 9.9-11.4 13.1-4.9 2.4-7 2.8-13.8 2.8-8.1-0.1-11.1-1-15.2-4.8-4.8-4.3-4.2-14.1 1.3-21.3 4.1-5.3 1.5-4.5-3.4 1-6 6.8-6.1 16-0.4 21.3 11.2 10.5 37.6 5.7 45.8-8.3 4.8-8.2 2.2-12.8-11.1-19.3-10-5-12.7-8-10.4-11.9 2.6-4.6 6.2-6.4 13.7-7 6.6-0.4 7.2-0.3 9.7 2.2 3 3.1 3 5.7-0.3 7.1-1.2 0.5-2.2 1.4-2.2 1.8 0 0.5 1.5 0 3.3-1 4.2-2.5 4.7-6 1.2-9.3-2.1-1.9-3.8-2.5-8.8-2.7-3.4-0.1-7.5 0.2-9.2 0.6z"/>
		<path class="s0" d="m1068.3 419c-7 1.6-12.2 6.6-12.3 11.7 0 4 3.6 7.1 13.4 11.7 7.9 3.6 10.6 6.4 10.6 10.9 0 5.9-4.5 11.2-12.5 14.9-6.5 2.9-19.3 3.1-24.3 0.5-4.2-2.3-7.2-7.2-7.2-11.7 0-4.3 4.1-13.4 6.6-14.8 1.1-0.6 1.5-1.4 1.1-1.8-0.4-0.4-2.7 1.3-5 3.8-12.7 13.2-4.3 28.1 15.8 28 11.6 0 22.7-5.1 28-13 5.4-8 2.1-14-11.2-20.3-9.8-4.7-12.5-7.7-10.2-11.7 2.5-4.4 6.2-6.4 13.3-6.9 7.3-0.6 10.9 0.8 12.2 4.9 0.5 1.7 0 2.7-2.2 4.5-2.1 1.7-2.3 2.2-0.9 1.7 7.4-2.5 7.2-9.7-0.2-12.5-2.8-1.1-10.4-1-15 0.1z"/>
		<path class="s0" d="m848.7 431.4c-4.4 4.8-13.1 24.8-12.9 30 0.3 6.2 5.6 7.6 10.2 2.6 2.8-3 2.9-3 3.2-0.8 0.4 2.7 4.4 4.4 8.2 3.4 2.5-0.6 8.6-7.7 8.6-9.9 0-0.6-1.4 0.9-3 3.2-3.9 5.3-7.4 7.1-9.7 4.9-2.5-2.5-1-6.2 3.1-7.6 3.3-1.2 8.6-6.3 8.6-8.2 0-0.5-0.7-1.5-1.5-2.4-1.2-1.1-2.2-1.3-4.4-0.5-3.6 1.3-6.1 4-9.9 10.9-1.6 3-4.1 6.3-5.5 7.4-6.4 4.7-6.2-4.3 0.3-12.5 2.3-2.9 5.5-7.9 7.1-11.2 4.5-8.7 2.8-15-2.4-9.3zm1.7 7.7c-3.2 6.4-7.5 13.1-8.1 12.5-0.6-0.6 5.2-13.1 7.8-16.8 3.3-4.5 3.5-1.9 0.3 4.3zm12.6 9.5c0 2.1-5.4 7.4-7.5 7.4-1.6 0-1.6-0.2 0-2.8 3.2-5.2 7.5-7.8 7.5-4.6z"/>
		<path class="s0" d="m1100.6 431.3c-5.4 5.4-13 24.5-12.4 31.4 0.3 3.4 0.6 3.8 3.4 4.1 2.2 0.2 3.7-0.4 5.5-2.2l2.3-2.4 1.1 2.1c1.5 3.2 4.3 3.2 7.5 0.2l2.7-2.6 0.7 2.5c0.8 3.2 4.5 3.5 7.1 0.6 1.7-1.9 1.8-1.9 3.5 0.2 2.4 3 6.3 1.7 10-3.4 1.7-2.2 3-3.9 3-3.7 0 1.7-4.1 10.5-5.1 11.1-0.8 0.4-4.6 1.7-8.6 2.8-5.3 1.5-7.8 2.8-9.7 5.1-2.9 3.4-3.1 4.2-1.6 7 0.8 1.4 2.1 1.9 5.3 1.9 5.5 0 9.4-2.8 15.3-10.9 2.4-3.4 4.8-6.1 5.3-6.1 1.9 0 7.2-5.4 9.2-9.1 2.6-5.3 1.7-4.9-1.5 0.5-2.3 4-7.2 8.3-8.2 7.3-0.6-0.6 5.2-16.4 7.1-19.4 1.4-2.1 1.4-2.3-0.5-2.3-1.1 0-2.7 1.2-3.6 2.7-9.2 15.1-13.4 19.6-13.4 14.4 0-2.5 3.4-10.5 6.1-14.2l2-2.9h-2c-2.7 0-3.5 1-8.5 10.5-4.5 8.5-7.6 10.9-7.6 5.8 0-1.5 1.1-4.7 2.4-7 1.4-2.4 2-4.5 1.5-4.8-1.5-1-2.7 0.3-7 7-3.6 5.8-7.1 8.6-8.6 7.1-1.4-1.4 2.1-9 6.1-13.1 4.1-4.4 6.8-5.5 8.1-3.5 0.3 0.5 1.1 1 1.8 1 1.6 0-1.4-2.8-3.3-3-6.1-0.8-10.5 2.4-15.2 11.2-5.2 9.8-10.5 11.6-9.5 3.2 0.3-3.2 1.5-5.5 4.6-9 5-5.7 10.4-16.3 9.9-19.5-0.4-3.2-2.4-3.4-5.2-0.6zm3.9 2.9c-1.5 4.9-10.5 19.6-10.5 17.1 0-1.5 5-12.2 7.4-16 2.4-3.8 4-4.3 3.1-1.1zm22.6 40.7c-4.6 6.5-12.2 11.4-15 9.6-1.8-1.1-1.2-4.2 1.3-6.6 2.4-2.3 10.4-5.7 13.9-5.8 1.7-0.1 1.7 0.1-0.2 2.8z"/>
		<path class="s0" d="m957.7 431.1c-1.4 0.8-18.7 33.5-18.7 35.4 0 0.3 0.8 0.5 1.8 0.5 1.1 0 2.5-1.4 3.4-3.3 2.2-4.4 8.6-11.7 10.4-11.7 1.8 0 1.8 0.2-0.7 4.4-2.8 4.7-2.3 10 0.9 10.4 1.4 0.2 3.3-0.5 4.6-1.7 2.1-2 2.2-2 3.3-0.2 0.9 1.5 2.3 1.9 5.8 1.9 4.4-0.1 4.9-0.4 7.2-4.2 3.2-5.1 8.3-10.6 9.9-10.6 0.9 0 0.5 1.8-1.2 5.5-2 4.3-2.3 5.8-1.4 7.5 1.4 2.7 5.1 2.6 7.8-0.3 3.1-3.3 2.7-4.5-0.4-1.3-6.8 6.7-5.9 1.2 2.4-15.8 0.8-1.7-4.4 0.7-9.2 4.2-4.4 3.2-4.7 3.3-3.6 1.1 0.7-1.3 1.9-3.2 2.8-4.2 1.4-1.5 1.3-1.7-0.5-1.7-2.6 0-4.4 2.1-8.2 9.7-3 6-6.6 9.8-8.3 8.7-1.4-0.9-0.9-3.3 2.2-10.4 3.5-8.1 3.6-9 1-9-1.1 0-2 0.7-2 1.5 0 2.5-5.6 14.1-7.9 16.4-5.1 5.1-5.4 1.2-0.6-8.8 2-4.1 3.4-7.6 3.2-7.8-0.9-0.8-5.9 1.8-9.6 5.3-2.3 2-4.1 3.3-4.1 2.9 0-0.9 8.8-17.3 11.2-20.7 2.9-4.2 2.3-5.9-1.5-3.7z"/>
		<path class="s0" d="m810.7 437.4c-1.4 1.5-2.9 3.7-3.2 4.7-0.4 1.1-1.5 1.9-2.6 1.9-1 0-1.9 0.4-1.9 1 0 0.5 0.6 1 1.4 1 1 0 0.8 1.5-1 6.5-2.6 7.3-3 11.5-1.2 13.3 1.8 1.8 5.3 1.4 7.3-0.8l1.8-2 1.4 2c2.2 3.1 5.2 2.4 9.4-2l3.8-4-1.5 4.2c-2.1 5.9-2.7 6.4-10.5 8.3-7.3 1.8-13.9 6.5-13.9 9.8 0 4.7 7.8 6.2 13.6 2.6 1.9-1.1 5.5-5 8-8.5 2.5-3.5 5-6.4 5.5-6.4 1.2 0 7.9-6 7.9-7.2 0-0.5-1.5 0.7-3.4 2.6-1.8 2-3.8 3.6-4.4 3.6-1.2 0 4-15.9 6.5-19.8 1.4-2.2 1.3-2.3-0.8-2-1.6 0.2-3.3 2.1-5.7 6.3-4.5 8-8 12.5-9.8 12.5-2.4 0-1.5-4.1 2.5-11.8 3.1-5.7 3.5-7.2 2.2-7.2-2.8 0-3.8 1.3-7.7 9.4-7.8 16-13.8 13.1-7.4-3.7 1.9-5.1 2.4-5.7 5-5.7 1.6 0 3.2-0.5 3.5-1 0.4-0.6-0.7-1-2.5-1h-3.2l2.2-3.5c2.9-4.8 2.1-6.8-1.3-3.1zm8.4 36.4c-1.6 3-9.8 10.1-12.5 10.8-5.1 1.2-6.3-2.7-2-6.7 2.5-2.4 10.2-5.7 13.7-5.8 1.4-0.1 1.6 0.3 0.8 1.7z"/>
		<path class="s0" d="m970.4 439.5c-0.3 0.8-0.3 1.9 0 2.4 1 1.6 3.6 0.1 3.6-2 0-2.2-2.8-2.6-3.6-0.4z"/>
		<path class="s0" d="m1004 446.2c-3.7 1.4-5.9 3.8-8.6 9-2 3.9-2.2 5.2-1.3 7.5 1.3 3.4 2.6 4.3 6.5 4.3 3.1 0 7-3.2 9.3-7.7 2-3.9 1.2-3.7-1.9 0.6-3.9 5.3-7.4 7.1-9.7 4.9-2.5-2.5-1-6.2 3.1-7.6 3.7-1.4 8.6-6.4 8.6-8.7 0-2.2-3.2-3.4-6-2.3zm4 2.4c0 2-5.4 7.4-7.5 7.4-1.9 0-1-2.1 2.9-6.3 2.8-3 4.6-3.5 4.6-1.1z"/>
		<path class="s0" d="m866.3 464.6c-0.3 0.8-0.1 2 0.5 2.6 1.6 1.6 4.2 0.2 4.2-2.2 0-2.4-3.8-2.8-4.7-0.4z"/>
		<path class="s0" d="m1012 464.5c-1 1.2-1 1.9-0.2 2.7 1.6 1.6 4.2 0.2 4.2-2.2 0-2.4-2.2-2.6-4-0.5z"/>
		<path class="s0" d="m1147.4 464.5c-0.7 1.8 0.3 3.5 2.1 3.5 1.5 0 2.8-2.7 1.9-4.1-0.8-1.4-3.4-1.1-4 0.6z"/>
	</g>
</svg>